# xmcd
#
# Track frame offsets: 
#        182
#        19202
#        38677
#        57415
#        77115
#        97657
#        121102
#        142765
#        174662
#        200995
#        230765
#        261347
#        287250
#        309350
#
# Disc length: 4591 seconds
#
# Revision: 2
# Processed by: cddbd v1.5.2PL0 Copyright (c) Steve Scherf et al.
# Submitted via: ExactAudioCopyFreeDBPlugin 1.0
#
DISCID=b911ed0e
DTITLE=Barry White - Just for You [box set]
DYEAR=1992
DGENRE=SMB
TTITLE0=Satin Soul (as "The Love Unlimited Orchestra")
TTITLE1=It Ain't Love, Babe (Until You Give It)
TTITLE2=I'll Do for You Anything You Want Me To
TTITLE3=Rio de Janeiro
TTITLE4=All Around the World (with Lisa Stansfield)
TTITLE5=Midnight and You (as "The Love Unlimited Orchestra")
TTITLE6=Walking in the Rain with the One I Love (as "The Love Unlimite
TTITLE6=d Orchestra")
TTITLE7=Just the Way You Are
TTITLE8=Beware
TTITLE9=Who's the Fool
TTITLE10=The Secret Garden (Sweet Seduction Suite) (Quincy Jones ft Al
TTITLE10=B. Sure!, James Ingram, El DeBarge and Barry White)
TTITLE11=All of Me (Big Daddy Kane ft Barry White)
TTITLE12=Dark and Lovely (with Isaac Hayes)
TTITLE13=Love's Interlude - Good Night My Love
EXTD=
EXTT0=
EXTT1=
EXTT2=
EXTT3=
EXTT4=
EXTT5=
EXTT6=
EXTT7=
EXTT8=
EXTT9=
EXTT10=
EXTT11=
EXTT12=
EXTT13=
PLAYORDER=
